<svg width="36" height="23" viewBox="0 0 36 23" fill="none" xmlns="http://www.w3.org/2000/svg">
<path d="M14.7795 10.7207L5.42139 10.7363V12.9106H10.9241C12.8773 12.9106 13.6188 14.2893 13.7454 14.9787C13.7693 14.8935 13.8171 15.1201 13.8171 16.7078C13.8171 18.2954 12.0785 18.8557 11.2092 18.9374H5.42139V22.6254H12.3158C16.4488 22.6254 18.3505 18.742 18.5005 17.825C18.641 16.9667 18.5915 15.8976 18.5005 14.9614C18.5005 12.6615 16.0198 11.176 14.7795 10.7207Z" fill="white"/>
<rect x="0.662598" y="0.945312" width="4.75917" height="21.6823" fill="white"/>
<path d="M12.4697 0.945312H5.32027L5.30273 4.62189H10.4833C11.6732 4.56392 12.4694 5.43113 12.7188 5.87198C12.9212 6.22964 12.992 6.63786 12.992 7.55044C12.992 8.89623 11.5789 9.52314 10.8723 9.66837H5.30831V10.7576H14.5696C15.5428 10.7576 16.9604 9.26459 17.3035 8.38551C17.4962 7.89173 17.5007 6.05688 17.4789 5.20118C17.4789 2.03449 14.1394 1.04448 12.4697 0.945312Z" fill="white"/>
<path fill-rule="evenodd" clip-rule="evenodd" d="M19.9942 14.2501C19.9768 11.515 21.5333 6.04492 27.8983 6.04492C34.2634 6.04492 35.6981 12.2142 35.6199 15.2988H24.2462C24.1779 16.6622 24.8228 19.3891 27.9489 19.3891C29.1483 19.3836 31.5471 18.9538 31.5471 17.2784H35.3082C35.0097 19.0618 33.1199 22.6286 27.9489 22.6286C22.7778 22.6286 20.7868 19.0618 20.4376 17.2784C20.2609 16.6807 19.9248 15.2381 19.9942 14.2501ZM24.4362 12.7769H31.2873C31.2193 11.6591 30.4566 9.4233 27.95 9.4233C25.4435 9.4233 24.5631 11.6591 24.4362 12.7769Z" fill="white"/>
<rect x="23.5132" y="2.32227" width="8.62098" height="2.17695" fill="white"/>
</svg>
