<svg width="29" height="29" viewBox="0 0 29 29" fill="none" xmlns="http://www.w3.org/2000/svg">
<path fill-rule="evenodd" clip-rule="evenodd" d="M1.16318 11.7269C1.15928 11.746 1.15541 11.7651 1.15159 11.7843C1.02695 12.4082 0.943671 13.0472 0.904754 13.6982C0.887929 13.9796 0.879395 14.2633 0.879395 14.549C0.879395 18.0973 2.19567 21.3365 4.36429 23.8007C4.55995 24.023 4.76256 24.239 4.97176 24.4484C5.23709 24.7139 5.51305 24.9688 5.79891 25.2122C8.22187 27.2756 11.3573 28.52 14.7821 28.52C17.2462 28.52 19.5606 27.8757 21.5676 26.7458C21.8424 26.591 22.1114 26.4272 22.3742 26.2547C26.032 23.8541 28.4956 19.7688 28.6743 15.0949C28.6812 14.9138 28.6847 14.7318 28.6847 14.549C28.6847 14.5039 28.6845 14.4587 28.6841 14.4136C28.6118 6.76007 22.4153 0.578125 14.7821 0.578125C13.542 0.578125 12.34 0.741257 11.1959 1.04734C10.9635 1.10951 10.7335 1.17758 10.5061 1.25138C10.0893 1.38663 9.68103 1.54112 9.28246 1.71381C5.17019 3.49555 2.08426 7.21461 1.16318 11.7269ZM10.4234 3.40651C6.86371 4.81627 4.13898 7.90197 3.2177 11.7027C7.64937 11.5567 11.3645 10.8144 14.3805 9.82293C12.9916 7.30038 11.5856 5.08216 10.4234 3.40651ZM15.3347 11.6123C11.9802 12.7514 7.83948 13.5869 2.90798 13.7125C2.88903 13.9889 2.87939 14.2678 2.87939 14.549C2.87939 17.4626 3.91322 20.1301 5.63041 22.2039C9.15355 18.0548 13.0842 15.7489 16.7844 14.5938C16.4956 13.9603 16.1974 13.3338 15.8926 12.717C15.7086 12.3444 15.5224 11.976 15.3347 11.6123ZM18.7471 14.0798C18.4037 13.3157 18.0482 12.5646 17.6857 11.831C17.5323 11.5206 17.3775 11.213 17.2217 10.9085C20.2449 9.67483 22.4943 8.22075 23.9745 6.9437C25.5412 8.85648 26.5294 11.2675 26.6679 13.9076C24.5161 13.5178 21.7519 13.4406 18.7471 14.0798ZM17.5893 16.4397C14.1233 17.4835 10.3894 19.6399 7.03684 23.639C9.1199 25.4355 11.8267 26.52 14.7821 26.52C16.7391 26.52 18.5871 26.0444 20.2172 25.2015C19.7641 22.357 18.8011 19.3537 17.5893 16.4397ZM22.0433 24.0348C21.5341 21.3535 20.6373 18.6019 19.5535 15.9561C22.2858 15.4299 24.7553 15.5547 26.6064 15.9305C26.2301 19.2265 24.5236 22.1119 22.0433 24.0348ZM22.58 5.50482C21.2527 6.62993 19.1603 7.97786 16.282 9.13119C14.9555 6.69926 13.604 4.52792 12.4394 2.81008C13.197 2.65792 13.9804 2.57812 14.7821 2.57812C17.7624 2.57812 20.49 3.68097 22.58 5.50482Z" fill="white"/>
</svg>
