<svg width="29" height="29" viewBox="0 0 29 29" fill="none" xmlns="http://www.w3.org/2000/svg">
<path fill-rule="evenodd" clip-rule="evenodd" d="M0.654879 11.7269C0.650975 11.746 0.64711 11.7651 0.643284 11.7843C0.518646 12.4082 0.435371 13.0472 0.396454 13.6982C0.379628 13.9796 0.371094 14.2633 0.371094 14.549C0.371094 18.0973 1.68737 21.3365 3.85599 23.8007C4.05165 24.023 4.25426 24.239 4.46346 24.4484C4.72879 24.7139 5.00475 24.9688 5.29061 25.2122C7.71356 27.2756 10.849 28.52 14.2738 28.52C16.7379 28.52 19.0523 27.8757 21.0593 26.7458C21.334 26.591 21.6031 26.4272 21.8659 26.2547C25.5237 23.8541 27.9873 19.7688 28.166 15.0949C28.1729 14.9138 28.1764 14.7318 28.1764 14.549C28.1764 14.5039 28.1762 14.4587 28.1758 14.4136C28.1035 6.76007 21.907 0.578125 14.2738 0.578125C13.0337 0.578125 11.8317 0.741257 10.6876 1.04734C10.4552 1.10951 10.2252 1.17758 9.99777 1.25138C9.58095 1.38663 9.17273 1.54112 8.77416 1.71381C4.66189 3.49555 1.57596 7.21461 0.654879 11.7269ZM9.91514 3.40651C6.35541 4.81627 3.63068 7.90197 2.70939 11.7027C7.14107 11.5567 10.8562 10.8144 13.8722 9.82293C12.4833 7.30038 11.0773 5.08216 9.91514 3.40651ZM14.8264 11.6123C11.4719 12.7514 7.33118 13.5869 2.39968 13.7125C2.38073 13.9889 2.37109 14.2678 2.37109 14.549C2.37109 17.4626 3.40492 20.1301 5.12211 22.2039C8.64525 18.0548 12.5759 15.7489 16.2761 14.5938C15.9873 13.9603 15.6891 13.3338 15.3843 12.717C15.2003 12.3444 15.0141 11.976 14.8264 11.6123ZM18.2388 14.0798C17.8954 13.3157 17.5399 12.5646 17.1774 11.831C17.024 11.5206 16.8692 11.213 16.7134 10.9085C19.7366 9.67483 21.986 8.22075 23.4662 6.9437C25.0329 8.85648 26.0211 11.2675 26.1596 13.9076C24.0078 13.5178 21.2436 13.4406 18.2388 14.0798ZM17.081 16.4397C13.615 17.4835 9.88109 19.6399 6.52854 23.639C8.6116 25.4355 11.3184 26.52 14.2738 26.52C16.2308 26.52 18.0788 26.0444 19.7089 25.2015C19.2558 22.357 18.2928 19.3537 17.081 16.4397ZM21.535 24.0348C21.0258 21.3535 20.129 18.6019 19.0452 15.9561C21.7775 15.4299 24.247 15.5547 26.0981 15.9305C25.7218 19.2265 24.0153 22.1119 21.535 24.0348ZM22.0717 5.50482C20.7444 6.62993 18.652 7.97786 15.7737 9.13119C14.4472 6.69926 13.0957 4.52792 11.9311 2.81008C12.6887 2.65792 13.4721 2.57812 14.2738 2.57812C17.2541 2.57812 19.9816 3.68097 22.0717 5.50482Z" fill="url(#paint0_linear_1547_222)"/>
<defs>
<linearGradient id="paint0_linear_1547_222" x1="1.41364" y1="-0.925292" x2="32.4446" y2="0.469877" gradientUnits="userSpaceOnUse">
<stop offset="0.753125" stop-color="#5ED8FF"/>
<stop offset="1" stop-color="#5E5BFF"/>
</linearGradient>
</defs>
</svg>
