<svg width="30" height="30" viewBox="0 0 30 30" fill="none" xmlns="http://www.w3.org/2000/svg">
<path fill-rule="evenodd" clip-rule="evenodd" d="M20.6286 19.3574H17.2476V29.548C17.9313 29.4402 18.5992 29.2844 19.2476 29.0842C25.1798 27.2527 29.4913 21.7036 29.4913 15.1409C29.4913 7.08807 22.9937 0.558594 14.9803 0.558594C6.96682 0.558594 0.469238 7.08807 0.469238 15.1409C0.469238 21.7018 4.78071 27.2507 10.7129 29.0827C11.3614 29.283 12.0292 29.4388 12.7129 29.5467V19.3574H9.02751V15.1409H12.7129V11.9282C12.7129 8.27417 14.8799 6.25415 18.1941 6.25415C19.7819 6.25415 21.4429 6.53928 21.4429 6.53928V10.1282H19.6122C17.8106 10.1282 17.247 11.2518 17.247 12.4067V15.1409H21.2712L20.6286 19.3574ZM19.247 13.1409H23.5991L22.3468 21.3574H19.2476V26.9745C24.0519 25.2213 27.4913 20.5889 27.4913 15.1409C27.4913 11.4714 25.9304 8.17262 23.4429 5.87425V12.1282H19.6122C19.4347 12.1282 19.3273 12.1483 19.2718 12.1634C19.2594 12.213 19.247 12.2932 19.247 12.4067V13.1409ZM21.7796 4.57787L21.4429 6.53928C21.7238 4.9028 21.7716 4.62508 21.7796 4.57787ZM21.7587 4.56432L21.752 4.56319L21.6857 4.55235C21.6297 4.54335 21.5505 4.53094 21.4515 4.5163C21.2538 4.48703 20.9756 4.4485 20.6446 4.41006C19.9914 4.3342 19.0951 4.25415 18.1941 4.25415C16.1297 4.25415 14.2036 4.89113 12.7922 6.31094C11.3801 7.73155 10.7129 9.70462 10.7129 11.9282V13.1409H7.02751V21.3574H10.7129V26.973C5.90847 25.2194 2.46924 20.5869 2.46924 15.1409C2.46924 8.1834 8.08061 2.55859 14.9803 2.55859C17.4767 2.55859 19.8044 3.29494 21.7587 4.56432Z" fill="white"/>
</svg>
