<?xml version="1.0" encoding="UTF-8"?><svg id="Layer_1" xmlns="http://www.w3.org/2000/svg" width="34.96" height="202.4" viewBox="0 0 34.96 202.4"><defs><style>.cls-1{fill:#fff;}</style></defs><g><path class="cls-1" d="m24.53,7.76c-3.97,0-5.48,1.79-5.74,2.7v-2.75h-5.82v16.88h5.82v-9.71c.12-.93.88-2.75,3-2.75s2.91,1.85,3.03,2.77v9.71h6.02v-10.99c0-.81-1.32-5.86-6.3-5.86Z"/><ellipse class="cls-1" cx="7.03" cy="2.91" rx="2.9" ry="2.91"/><rect class="cls-1" x="4.53" y="7.71" width="5.37" height="16.88"/></g><g><path class="cls-1" d="m14.12,67.43c.96-.18,2.2-1.52,2.52-2.34.19-.49.2-2.33.18-3.18,0-3.17-3.34-4.16-5.01-4.26H0v21.68h4.76s6.89,0,6.89,0c4.13,0,6.03-3.88,6.18-4.8.14-.86.09-1.93,0-2.86,0-2.3-2.48-3.78-3.72-4.24Zm-4.3-6.1c1.19-.06,1.99.81,2.24,1.25.2.36.27.77.27,1.68,0,1.35-1.41,1.97-2.12,2.12h-5.45v-5.05h5.06Zm.73,14.32h-5.79v-6.03h5.5c1.95,0,2.69,1.38,2.82,2.07.02-.09.07.14.07,1.73s-1.74,2.15-2.61,2.23Z"/><path class="cls-1" d="m27.29,76.1c-3.13,0-3.77-2.73-3.7-4.09h11.37c.08-3.08-1.36-9.25-7.72-9.25s-7.92,5.47-7.9,8.21c-.07.99.27,2.43.44,3.03.35,1.78,2.34,5.35,7.51,5.35s7.06-3.57,7.36-5.35h-3.76c0,1.68-2.4,2.11-3.6,2.11Zm0-9.97c2.51,0,3.27,2.24,3.34,3.35h-6.85c.13-1.12,1.01-3.35,3.51-3.35Z"/><rect class="cls-1" x="22.85" y="59.03" width="8.62" height="2.18"/></g><g><path class="cls-1" d="m21.44,125.88c4.04-.86,7.65-.43,9.94.33-.03-3.39-1.27-6.49-3.31-8.9-.01.01-.01.03-.02.04-1.21,1.47-3.94,3.61-8.15,5.33.53,1.04,1.05,2.1,1.54,3.19Z"/><path class="cls-1" d="m18.98,120.94c3.91-1.56,6.42-3.5,7.52-4.84.06-.07.13-.12.21-.17-2.46-2.2-5.68-3.55-9.23-3.55-1.24,0-2.43.18-3.58.49,1.39,1.89,3.26,4.74,5.07,8.07Z"/><path class="cls-1" d="m4.32,123.53c5.13,0,9.37-.79,12.77-1.91-1.78-3.23-3.6-5.99-4.94-7.78-.07-.1-.12-.21-.15-.32-4.11,1.78-7.2,5.5-8.13,10.01.13,0,.3,0,.45,0Z"/><path class="cls-1" d="m30.92,128.17c-1.96-.7-5.11-1.11-8.68-.42,1.4,3.41,2.47,6.96,2.82,10.29,3.31-2.17,5.63-5.72,6.18-9.83-.11,0-.22,0-.32-.05Z"/><path class="cls-1" d="m19.49,126.4c-.47-1.03-.96-2.03-1.47-3.01-3.65,1.24-8.22,2.14-13.72,2.14-.16,0-.31,0-.47,0-.07,0-.14-.03-.21-.04-.02.29-.04.57-.04.87,0,3.54,1.33,6.77,3.5,9.24,3.82-5.15,8.26-7.89,12.41-9.18Z"/><path class="cls-1" d="m23.12,138.65c-.29-3.33-1.39-6.95-2.83-10.41-3.89,1.18-8.09,3.74-11.71,8.68-.02.03-.06.04-.09.07,2.43,2.07,5.56,3.33,8.99,3.33,2.06,0,4.01-.46,5.77-1.28-.07-.12-.12-.25-.13-.4Z"/></g><path class="cls-1" d="m17.48,173.36c-8,0-14.51,6.54-14.51,14.58,0,6.72,4.52,12.54,11,14.15l1.24.31v-10.25h-3.69v-4.22h3.69v-3.21c0-1.77.52-3.22,1.5-4.21.95-.96,2.33-1.47,3.98-1.47.83,0,1.67.08,2.22.14.31.04.56.07.75.1l.25.04.03,3.59h-1.83c-.83,0-1.46.24-1.86.71-.23.27-.5.76-.5,1.57v2.73h4.02l-.64,4.22h-3.38v10.25l1.24-.31c6.48-1.62,11-7.44,11-14.16,0-8.04-6.51-14.58-14.51-14.58Z"/></svg>