<svg width="28" height="25" viewBox="0 0 28 25" fill="none" xmlns="http://www.w3.org/2000/svg">
<path d="M21.2388 8.05469C17.2505 8.05469 15.7453 9.86225 15.4912 10.766V15.1967C15.6011 14.272 16.3564 12.4227 18.4989 12.4227C20.6414 12.4227 21.4105 14.272 21.5273 15.1967V24.906H27.5427V13.9132C27.5427 13.1058 26.2243 8.05469 21.2388 8.05469Z" fill="url(#paint0_linear_1545_209)"/>
<ellipse cx="3.74189" cy="3.20191" rx="2.89667" ry="2.91089" fill="url(#paint1_linear_1545_209)"/>
<rect x="1.24316" y="8.00391" width="5.36607" height="16.8842" fill="url(#paint2_linear_1545_209)"/>
<rect x="9.67578" y="8.00391" width="5.81963" height="16.8842" fill="url(#paint3_linear_1545_209)"/>
<defs>
<linearGradient id="paint0_linear_1545_209" x1="15.9431" y1="7.148" x2="29.4058" y2="7.58301" gradientUnits="userSpaceOnUse">
<stop offset="0.753125" stop-color="#5ED8FF"/>
<stop offset="1" stop-color="#5E5BFF"/>
</linearGradient>
<linearGradient id="paint1_linear_1545_209" x1="1.06243" y1="-0.0222269" x2="7.52784" y2="0.268462" gradientUnits="userSpaceOnUse">
<stop offset="0.753125" stop-color="#5ED8FF"/>
<stop offset="1" stop-color="#5E5BFF"/>
</linearGradient>
<linearGradient id="paint2_linear_1545_209" x1="1.44436" y1="7.09545" x2="7.4438" y2="7.1816" gradientUnits="userSpaceOnUse">
<stop offset="0.753125" stop-color="#5ED8FF"/>
<stop offset="1" stop-color="#5E5BFF"/>
</linearGradient>
<linearGradient id="paint3_linear_1545_209" x1="9.89399" y1="7.09545" x2="16.4003" y2="7.19677" gradientUnits="userSpaceOnUse">
<stop offset="0.753125" stop-color="#5ED8FF"/>
<stop offset="1" stop-color="#5E5BFF"/>
</linearGradient>
</defs>
</svg>
